<svg viewBox="0 0 500 500" xmlns="http://www.w3.org/2000/svg" xmlns:xlink="http://www.w3.org/1999/xlink" width="100%" id="blobSvg">
  <defs>
    <pattern id="pattern" x="0" y="0" width="20" height="12" patternUnits="userSpaceOnUse" fill="#6c7c93">
      <path d="M9.8 12L0 2.2V.8l10 10 10-10v1.4L10.2 12h-.4zm-4 0L0 6.2V4.8L7.2 12H5.8zm8.4 0L20 6.2V4.8L12.8 12h1.4zM9.8 0l.2.2.2-.2h-.4zm-4 0L10 4.2 14.2 0h-1.4L10 2.8 7.2 0H5.8z"></path>
    </pattern>
  </defs>
  <path id="blob" d="M386.5,300.5Q351,351,300.5,389Q250,427,195,393.5Q140,360,107,305Q74,250,110,198Q146,146,198,134.5Q250,123,315.5,121Q381,119,401.5,184.5Q422,250,386.5,300.5Z" fill="url(#pattern)"></path>
</svg>