<?xml version="1.0" standalone="no"?>
<!DOCTYPE svg PUBLIC "-//W3C//DTD SVG 20010904//EN"
 "http://www.w3.org/TR/2001/REC-SVG-20010904/DTD/svg10.dtd">
<svg version="1.0" xmlns="http://www.w3.org/2000/svg"
 width="120.000000pt" height="100.000000pt" viewBox="0 0 120.000000 100.000000"
 preserveAspectRatio="xMidYMid meet">

<g transform="translate(0.000000,100.000000) scale(0.100000,-0.100000)"
fill="#000000" stroke="none">
<path d="M7 993 c-4 -3 -7 -195 -7 -425 l0 -418 600 0 600 0 -2 423 -3 422
-591 3 c-325 1 -594 -1 -597 -5z m1141 -98 c35 -29 48 -93 37 -172 -6 -46 -15
-57 -198 -246 -172 -177 -195 -197 -224 -197 -21 0 -44 10 -66 30 -19 16 -38
30 -42 30 -4 0 -27 -16 -51 -35 -66 -54 -82 -49 -188 54 -130 127 -122 125
-206 46 -80 -76 -110 -83 -160 -37 -24 21 -32 38 -37 79 -12 110 -5 124 136
271 147 151 163 158 229 101 18 -16 36 -29 40 -29 5 0 24 16 43 36 71 75 91
69 224 -65 49 -50 95 -91 102 -91 8 0 69 56 138 125 111 112 128 125 159 125
22 0 45 -9 64 -25z"/>
<path d="M1060 835 c-6 -8 -9 -19 -5 -24 3 -6 0 -8 -8 -5 -8 3 -20 -2 -27 -11
-12 -14 -8 -22 28 -57 35 -36 43 -40 57 -28 9 7 14 19 11 27 -4 8 -1 11 5 8 6
-4 19 1 30 11 25 23 9 42 -43 50 -45 8 -61 24 -23 24 15 0 24 4 20 10 -9 14
-31 12 -45 -5z m90 -67 c0 -5 -12 -8 -26 -8 -21 0 -25 -4 -21 -20 7 -29 -4
-25 -42 14 -29 30 -31 35 -15 38 24 4 104 -14 104 -24z"/>
<path d="M425 680 l-110 -110 113 -113 112 -112 112 112 113 113 -110 110
c-60 60 -112 110 -115 110 -3 0 -55 -50 -115 -110z"/>
<path d="M307 762 c-9 -10 -14 -22 -10 -27 5 -4 3 -5 -3 -2 -14 8 -47 -26 -37
-38 5 -4 3 -5 -3 -2 -10 6 -57 -34 -52 -44 2 -2 1 -3 -1 -1 -9 5 -40 -31 -34
-41 3 -5 1 -7 -4 -4 -6 4 -17 -1 -26 -11 -15 -16 -13 -20 18 -54 35 -37 45
-56 23 -42 -7 4 -8 3 -4 -4 14 -24 -9 -11 -44 23 l-36 35 -29 -30 -29 -30 40
-40 39 -40 80 80 c66 66 77 82 66 92 -12 11 -13 10 -8 -4 10 -28 -6 -21 -43
17 -31 32 -32 35 -12 35 14 0 22 6 22 17 0 13 10 7 38 -20 50 -49 64 -35 15
15 -32 33 -34 38 -17 38 11 0 31 -11 44 -25 13 -14 28 -25 33 -25 5 0 6 11 3
25 -5 20 -3 25 11 25 14 0 15 -2 4 -9 -7 -5 -9 -11 -4 -14 6 -4 21 5 34 19
l23 25 -40 40 c-39 39 -41 39 -57 21z m72 -75 c1 -11 -40 2 -56 19 -7 7 -13
20 -13 29 0 14 7 11 34 -12 19 -15 35 -32 35 -36z m-75 20 c11 -8 17 -19 15
-26 -3 -8 -13 -3 -28 13 -26 28 -17 35 13 13z m-94 -142 c13 -14 18 -25 11
-25 -7 0 -9 -4 -6 -10 3 -5 2 -10 -4 -10 -11 0 -26 20 -26 35 0 6 -5 10 -12
10 -7 0 -18 6 -24 13 -10 10 -8 12 12 12 14 0 36 -11 49 -25z m-60 -110 c0 -3
-4 -3 -10 0 -5 3 -10 -1 -10 -11 0 -14 -3 -14 -15 -4 -9 7 -14 19 -11 26 3 7
1 16 -4 19 -6 4 -10 1 -10 -6 0 -8 -4 -8 -15 1 -19 16 -19 30 1 30 9 0 13 5 8
13 -3 6 10 -5 30 -25 20 -20 36 -39 36 -43z"/>
<path d="M990 757 c0 -18 76 -91 84 -79 5 8 -66 92 -79 92 -3 0 -5 -6 -5 -13z"/>
<path d="M951 727 c-20 -23 -21 -25 -4 -38 11 -9 14 -10 9 -1 -13 22 10 12 37
-16 39 -41 33 -46 -23 -17 -27 14 -50 22 -50 17 0 -11 29 -49 30 -39 0 4 13 1
29 -7 26 -14 30 -14 47 5 17 19 16 21 -22 61 -24 25 -32 38 -20 34 16 -5 17
-4 6 9 -16 19 -12 19 -39 -8z"/>
<path d="M888 623 c4 -23 2 -25 -18 -20 -24 6 -50 -1 -50 -14 0 -4 16 -24 35
-44 22 -21 30 -35 21 -35 -8 0 -29 17 -47 38 -17 20 -29 29 -25 19 3 -11 2
-16 -5 -12 -10 7 -68 -42 -69 -57 0 -5 9 -8 21 -8 11 0 17 5 14 10 -12 19 2
10 31 -22 16 -18 21 -26 12 -19 -20 15 -101 24 -93 10 4 -5 0 -6 -8 -3 -8 3
-20 -2 -27 -11 -12 -14 -8 -22 27 -57 24 -24 46 -38 52 -33 9 5 9 10 1 20 -16
19 -3 40 15 25 8 -7 19 -9 25 -5 18 11 11 25 -15 25 -14 0 -25 5 -25 10 0 7
13 8 35 4 27 -5 41 -2 56 12 11 10 18 23 15 30 -3 8 0 11 8 8 7 -3 19 2 26 11
11 14 8 22 -26 58 -21 23 -30 34 -19 26 31 -25 100 -31 119 -10 14 15 14 19
-4 34 -22 19 -25 15 -10 -14 16 -29 3 -23 -31 16 -37 42 -48 44 -41 8z m-50
-96 c6 -5 12 -21 12 -34 0 -21 -2 -23 -15 -13 -8 6 -13 17 -12 23 1 6 -3 11
-10 12 -7 0 -17 5 -24 12 -9 9 -7 12 12 11 13 -1 30 -6 37 -11z m-100 -92 c0
-25 -1 -25 -20 -8 -18 16 -18 18 -1 24 10 4 19 8 19 8 1 1 2 -10 2 -24z"/>
<path d="M902 544 c14 -14 21 -15 30 -6 8 8 9 12 1 12 -6 0 -20 3 -30 6 -17 7
-17 6 -1 -12z"/>
<path d="M11 63 c1 -21 3 -30 6 -21 2 9 12 19 21 21 15 4 15 5 0 6 -26 2 -22
19 5 24 19 4 18 4 -5 6 -26 1 -28 -2 -27 -36z"/>
<path d="M417 92 c6 -4 13 -21 16 -37 l4 -30 2 32 c0 21 7 33 19 36 9 3 1 5
-18 6 -19 0 -30 -3 -23 -7z"/>
<path d="M917 92 c6 -4 13 -21 16 -37 l4 -30 2 32 c0 17 7 34 14 36 6 3 -1 6
-18 6 -16 0 -25 -3 -18 -7z"/>
<path d="M1052 93 c-1 -7 -8 -13 -16 -13 -8 0 -17 -6 -20 -12 -5 -10 -7 -10
-12 0 -8 16 -41 15 -47 -2 -3 -8 1 -22 9 -33 14 -17 14 -17 29 1 14 18 16 19
28 3 19 -26 39 -6 34 34 -2 19 -5 28 -5 22z m-59 -29 c9 -9 -4 -35 -14 -28 -5
3 -9 12 -9 20 0 14 12 19 23 8z m57 -8 c0 -8 -4 -17 -9 -20 -10 -7 -23 19 -14
28 11 11 23 6 23 -8z"/>
<path d="M1182 75 c0 -16 2 -22 5 -12 2 9 2 23 0 30 -3 6 -5 -1 -5 -18z"/>
<path d="M72 53 c3 -28 29 -39 34 -15 1 7 0 8 -3 2 -7 -14 -23 -2 -23 17 0 9
6 13 15 9 8 -3 15 -1 15 4 0 6 -9 10 -21 10 -16 0 -20 -5 -17 -27z"/>
<path d="M130 55 c0 -32 6 -32 12 0 3 14 1 25 -3 25 -5 0 -9 -11 -9 -25z"/>
<path d="M167 74 c-4 -4 -7 -17 -6 -28 0 -19 1 -19 11 4 11 25 11 25 15 3 5
-28 23 -30 23 -3 0 26 17 26 23 0 4 -17 4 -16 3 2 -1 18 -8 24 -31 26 -17 2
-34 0 -38 -4z"/>
<path d="M252 55 c0 -16 2 -22 5 -12 2 9 2 23 0 30 -3 6 -5 -1 -5 -18z"/>
<path d="M277 74 c-4 -4 -7 -17 -6 -28 0 -20 1 -20 9 2 5 12 14 22 19 22 5 0
12 -10 14 -22 5 -20 5 -20 4 2 -2 24 -26 38 -40 24z"/>
<path d="M334 65 c-4 -9 -2 -21 4 -27 8 -8 9 -4 5 12 -4 15 -2 21 6 19 7 -3
12 -8 12 -12 -1 -4 -1 -16 -1 -28 0 -16 -4 -20 -17 -14 -14 5 -15 4 -6 -6 18
-18 40 4 39 38 -1 32 -32 45 -42 18z"/>
<path d="M464 66 c-8 -21 13 -46 32 -39 20 8 13 47 -9 51 -9 2 -20 -4 -23 -12z
m34 -13 c-4 -22 -22 -20 -26 1 -2 10 3 16 13 16 10 0 15 -7 13 -17z"/>
<path d="M521 52 c2 -23 2 -24 6 -4 2 12 9 22 14 22 5 0 9 -10 10 -22 0 -22 1
-22 11 2 l11 25 7 -25 8 -25 1 26 c1 23 -3 26 -34 27 -32 1 -35 -1 -34 -26z"/>
<path d="M612 53 c3 -28 29 -39 34 -15 1 7 0 8 -3 2 -7 -14 -23 -2 -23 17 0 9
6 13 15 9 8 -3 15 -1 15 4 0 6 -9 10 -21 10 -16 0 -20 -5 -17 -27z"/>
<path d="M670 55 c0 -32 6 -32 12 0 3 14 1 25 -3 25 -5 0 -9 -11 -9 -25z"/>
<path d="M701 52 c2 -23 2 -24 6 -4 5 24 23 31 23 8 0 -20 24 -36 39 -27 7 5
11 17 9 27 -2 14 -13 20 -41 21 -34 2 -37 0 -36 -25z m69 4 c0 -8 -4 -17 -9
-21 -12 -7 -24 12 -16 25 9 15 25 12 25 -4z"/>
<path d="M791 70 c0 -8 4 -22 9 -30 12 -18 12 -2 0 25 -6 13 -9 15 -9 5z"/>
<path d="M821 70 c-1 -21 16 -46 26 -37 4 5 3 11 -3 15 -6 4 -14 14 -17 22 -5
13 -5 13 -6 0z"/>
<path d="M1104 72 c3 -5 0 -13 -6 -15 -10 -4 -10 -6 0 -6 7 -1 10 -6 7 -11 -5
-8 -11 -7 -21 1 -9 7 -14 8 -14 1 0 -13 21 -21 38 -14 15 5 16 38 0 48 -6 4
-8 3 -4 -4z"/>
<path d="M1134 42 c1 -37 2 -40 13 -25 15 20 17 33 4 33 -5 0 -11 8 -13 18 -3
9 -4 -2 -4 -26z"/>
</g>
</svg>
