<svg viewBox="0 0 500 500" xmlns="http://www.w3.org/2000/svg" xmlns:xlink="http://www.w3.org/1999/xlink" width="100%" id="blobSvg">
  <defs>
    <pattern id="pattern" x="0" y="0" width="28" height="49" patternUnits="userSpaceOnUse" fill="#6c7c93">
      <path d="M13.99 9.25l13 7.5v15l-13 7.5L1 31.75v-15l12.99-7.5zM3 17.9v12.7l10.99 6.34 11-6.35V17.9l-11-6.34L3 17.9zM0 15l12.98-7.5V0h-2v6.35L0 12.69v2.3zm0 18.5L12.98 41v8h-2v-6.85L0 35.81v-2.3zM15 0v7.5L27.99 15H28v-2.31h-.01L17 6.35V0h-2zm0 49v-8l12.99-7.5H28v2.31h-.01L17 42.15V49h-2z"></path>
    </pattern>
  </defs>
  <path id="blob" d="M482.5,286Q473,322,455,354Q437,386,414.5,416Q392,446,357.5,460Q323,474,286.5,474.5Q250,475,214.5,472.5Q179,470,143.5,457.5Q108,445,78,420.5Q48,396,36.5,359.5Q25,323,20,286.5Q15,250,13.5,211.5Q12,173,39,144.5Q66,116,90,89.5Q114,63,144.5,40.5Q175,18,212.5,13.5Q250,9,285.5,20Q321,31,352.5,48Q384,65,416,85.5Q448,106,463,141Q478,176,485,213Q492,250,482.5,286Z" fill="url(#pattern)"></path>
</svg>