<svg id="Layer_3" enable-background="new 0 0 64 64" height="512" viewBox="0 0 64 64" width="512" xmlns="http://www.w3.org/2000/svg"><g><path d="m45 8h17v54h-60v-54h15" fill="#59ac98"/><path d="m31 6h14v13h-14z" fill="#243242"/><path d="m31 15h14v4h-14z" fill="#a8b0bc"/><path d="m36 6h4v9h-4z" fill="#c1c8d1"/><path d="m55 11h4v8h-4z" fill="#243242"/><path d="m48 11h4v8h-4z" fill="#f2c351"/><path d="m35 6v-4h6v4" fill="#e7e4dd"/><g><path d="m30.999 3h1.999v3h-1.999z" fill="#d5cec2"/></g><g><path d="m42.999 3h1.999v3h-1.999z" fill="#d5cec2"/></g><g><path d="m30.999 11h2.999v2h-2.999z" fill="#4d5d7a"/></g><g><path d="m41.999 11h2.999v2h-2.999z" fill="#4d5d7a"/></g><path d="m17 6h10v10h-10z" fill="#cbc3b6"/><g><path d="m20.999 9h1.999v7h-1.999z" fill="#e7e4dd"/></g><path d="m18 6v-4h8v4" fill="#e7e4dd"/><g><path d="m20.999 2h1.999v4h-1.999z" fill="#d5cec2"/></g><g><path d="m5.499 12.999c-.827 0-1.5-.673-1.5-1.5s.673-1.5 1.5-1.5c.826 0 1.499.673 1.499 1.5s-.673 1.5-1.499 1.5zm0-1.999c-.276 0-.5.224-.5.5 0 .275.224.5.5.5.275 0 .499-.224.499-.5s-.224-.5-.499-.5z" fill="#243242"/></g><g><path d="m17.5 21.999c-.827 0-1.5-.673-1.5-1.5s.673-1.5 1.5-1.5c.826 0 1.499.673 1.499 1.5s-.673 1.5-1.499 1.5zm0-1.999c-.276 0-.5.224-.5.5 0 .275.224.5.5.5.275 0 .499-.224.499-.5s-.224-.5-.499-.5z" fill="#243242"/></g><g><path d="m21.5 21.999c-.827 0-1.5-.673-1.5-1.5s.673-1.5 1.5-1.5c.826 0 1.499.673 1.499 1.5s-.673 1.5-1.499 1.5zm0-1.999c-.276 0-.5.224-.5.5 0 .275.224.5.5.5.275 0 .499-.224.499-.5s-.224-.5-.499-.5z" fill="#243242"/></g><g><path d="m49.5 25.999c-.827 0-1.5-.673-1.5-1.5s.673-1.5 1.5-1.5c.826 0 1.499.673 1.499 1.5s-.673 1.5-1.499 1.5zm0-1.999c-.276 0-.5.224-.5.5 0 .275.224.5.5.5.275 0 .499-.224.499-.5s-.224-.5-.499-.5z" fill="#243242"/></g><g><path d="m45.5 25.999c-.827 0-1.5-.673-1.5-1.5s.673-1.5 1.5-1.5c.826 0 1.499.673 1.499 1.5s-.673 1.5-1.499 1.5zm0-1.999c-.276 0-.5.224-.5.5 0 .275.224.5.5.5.275 0 .499-.224.499-.5s-.224-.5-.499-.5z" fill="#243242"/></g><g><path d="m31.5 23.999c-.827 0-1.5-.673-1.5-1.5s.673-1.5 1.5-1.5c.826 0 1.499.673 1.499 1.5s-.673 1.5-1.499 1.5zm0-1.999c-.276 0-.5.224-.5.5 0 .275.224.5.5.5.275 0 .499-.224.499-.5s-.224-.5-.499-.5z" fill="#243242"/></g><g><path d="m31.5 27.999c-.827 0-1.5-.673-1.5-1.5s.673-1.5 1.5-1.5c.826 0 1.499.673 1.499 1.5s-.673 1.5-1.499 1.5zm0-1.999c-.276 0-.5.224-.5.5 0 .275.224.5.5.5.275 0 .499-.224.499-.5s-.224-.5-.499-.5z" fill="#243242"/></g><g><path d="m17.5 25.999c-.827 0-1.5-.673-1.5-1.5s.673-1.5 1.5-1.5c.826 0 1.499.673 1.499 1.5s-.673 1.5-1.499 1.5zm0-1.999c-.276 0-.5.224-.5.5 0 .275.224.5.5.5.275 0 .499-.224.499-.5s-.224-.5-.499-.5z" fill="#243242"/></g><g><path d="m21.5 25.999c-.827 0-1.5-.673-1.5-1.5s.673-1.5 1.5-1.5c.826 0 1.499.673 1.499 1.5s-.673 1.5-1.499 1.5zm0-1.999c-.276 0-.5.224-.5.5 0 .275.224.5.5.5.275 0 .499-.224.499-.5s-.224-.5-.499-.5z" fill="#243242"/></g><g><path d="m5.499 59.998c-.827 0-1.5-.673-1.5-1.499 0-.827.673-1.5 1.5-1.5.826 0 1.499.673 1.499 1.5 0 .826-.673 1.499-1.499 1.499zm0-1.999c-.276 0-.5.224-.5.5 0 .275.224.499.5.499.275 0 .499-.224.499-.499 0-.276-.224-.5-.499-.5z" fill="#243242"/></g><g><path d="m58.499 59.998c-.827 0-1.5-.673-1.5-1.499 0-.827.673-1.5 1.5-1.5.826 0 1.499.673 1.499 1.5 0 .826-.673 1.499-1.499 1.499zm0-1.999c-.276 0-.5.224-.5.5 0 .275.224.499.5.499.275 0 .499-.224.499-.499 0-.276-.224-.5-.499-.5z" fill="#243242"/></g><g><path d="m56.5 52.998c-.827 0-1.5-.673-1.5-1.499 0-.827.673-1.5 1.5-1.5.826 0 1.499.673 1.499 1.5 0 .826-.673 1.499-1.499 1.499zm0-1.999c-.276 0-.5.224-.5.5 0 .275.224.499.5.499.275 0 .499-.224.499-.499 0-.276-.224-.5-.499-.5z" fill="#243242"/></g><path d="m17 28h3v24h-3z" fill="#e7e4dd"/><path d="m11 20h3v24h-3z" fill="#4d5d7a"/><path d="m5 20h3v24h-3z" fill="#4d5d7a"/><path d="m42.5 42.5h3v18h-3z" fill="#4d5d7a" transform="matrix(0 -1 1 0 -7.5 95.5)"/><g fill="#e7e4dd"><path d="m42.5 48.5h3v18h-3z" transform="matrix(0 -1 1 0 -13.5 101.5)"/><path d="m25 24h3v28h-3z"/><path d="m49 28h4v4h-4z"/></g><path d="m42 28h4v4h-4z" fill="#cbc3b6"/><path d="m35 28h4v4h-4z" fill="#e7e4dd"/><path d="m39 39h10v8h-10z" fill="#243242"/><path d="m39 40-4 1v4l4 1" fill="#cbc3b6"/><g><path d="m38.999 41.999h6.999v1.999h-6.999z" fill="#e7e4dd"/></g><path d="m5 47h8v8h-8z" fill="#cbc3b6"/><g><path d="m9.998 52.998h-1.999c-.553 0-1-.447-1-1v-1.999c0-.553.447-1 1-1h1.999c.553 0 1 .447 1 1v1.999c0 .553-.447 1-1 1z" fill="#e7e4dd"/></g><g><path d="m16 53.999h7.999v1.999h-7.999z" fill="#4d5d7a"/></g><g><path d="m16 56.999h7.999v1.999h-7.999z" fill="#4d5d7a"/></g><g><path d="m25 56.999h1.999v1.999h-1.999z" fill="#e39854"/></g><g><path d="m28 56.999h1.999v1.999h-1.999z" fill="#f2c351"/></g><g><path d="m31 56.999h1.999v1.999h-1.999z" fill="#e47c6e"/></g><g><path d="m57.999 38.999h1.999v1.999h-1.999z" fill="#e39854"/></g><g><path d="m57.999 41.999h1.999v1.999h-1.999z" fill="#f2c351"/></g><g><path d="m57.999 44.999h1.999v1.999h-1.999z" fill="#e47c6e"/></g><g><path d="m54.999 25h4.999v2h-4.999z" fill="#4d5d7a"/></g><g><path d="m54.999 28h4.999v2h-4.999z" fill="#4d5d7a"/></g><g><path d="m54.999 31h4.999v2h-4.999z" fill="#4d5d7a"/></g><g><path d="m12.999 11h1.999v6h-1.999z" fill="#e7e4dd"/></g><g><path d="m10 11h1.999v6h-1.999z" fill="#e7e4dd"/></g><g><path d="m6.999 15h1.999v2h-1.999z" fill="#e7e4dd"/></g><circle cx="33" cy="36" fill="#f2c351" r="2"/><g><path d="m38.999 35.999h1.999v2.999h-1.999z" fill="#4d5d7a"/></g><g><path d="m41.999 35.999h1.999v2.999h-1.999z" fill="#4d5d7a"/></g><g><path d="m44.999 35.999h1.999v2.999h-1.999z" fill="#4d5d7a"/></g><path d="m52 38h4v3h-4z" fill="#f2c351"/><path d="m52 44h4v3h-4z" fill="#243242"/></g></svg>